<svg width="72" height="72" viewBox="0 0 72 72" fill="none" xmlns="http://www.w3.org/2000/svg">
<path d="M34.7446 39.9104V31.2858L9.22404 16.4896C8.09147 15.8295 6.68924 15.8405 5.56746 16.5006C4.44568 17.1716 3.74457 18.4037 3.74457 19.7348V51.8794C3.74457 53.2215 4.45647 54.4646 5.59982 55.1357L34.7446 72V63.3753L11.0793 49.7012V26.1703L34.7446 39.8994V39.9104Z" fill="#6400B9"/>
<path d="M45.1541 35.7446L61.3351 26.2408V58.5142L68.7446 54.2683V19.7399C68.7446 18.409 68.0363 17.166 66.8813 16.495C65.7372 15.835 64.3098 15.835 63.1766 16.495L39.586 30.3437C38.4528 31.0147 37.7446 32.2467 37.7446 33.5777V72L45.1541 67.7541V35.7226V35.7446Z" fill="#991DFF"/>
<path d="M37.7446 0V8.25908L56.1686 18L63.7446 13.5763L37.7446 0Z" fill="#35343C"/>
<path d="M34.7446 0L8.74457 13.4838L16.3225 18L34.7446 8.31769V0Z" fill="#9D9CAA"/>
</svg>
